<?xml version="1.0" encoding="utf-8"?>
<svg viewBox="0 0 105 105">
<g>
	<path d="M104.5,23.2C104.5,23.2,104.5,23.2,104.5,23.2L104.5,23.2L72.8,7.4c-0.2-0.1-0.4-0.2-0.7-0.2
		C71.9,7,71.6,7,71.3,7c-1.2,0-2.4,0.6-3.1,1.7L50.1,38.2l22.8,37.1l31.7-51.6C104.7,23.5,104.7,23.3,104.5,23.2z"/>
	<polygon points="40.1,31.5 40.1,65.1 69.9,80 	"/>
	<path d="M74.4,82.3L99,94.6c3.2,1.6,5.8,0.5,5.8-2.5V32.9L74.4,82.3z"/>
	<path d="M34.9,23.3L4,7.8C3.5,7.6,2.9,7.4,2.5,7.4c-1.4,0-2.3,1-2.3,2.8v66.6c0,1.8,1.3,3.9,2.9,4.7l27.2,13.6
		c0.7,0.3,1.4,0.5,2,0.5c1.7,0,2.9-1.3,2.9-3.5V23.6C35.1,23.4,35,23.3,34.9,23.3z"/>
</g>
</svg>
