<?xml version="1.0" encoding="utf-8"?>
<svg version="1.1" viewBox="0 0 432 484">
<path d="M411.463,284.021V427.76h-83.328V293.646c0-33.692-12.057-56.683-42.219-56.683
	c-23.026,0-36.729,15.496-42.759,30.482c-2.195,5.361-2.76,12.817-2.76,20.321V427.76h-83.359c0,0,1.123-227.146,0-250.681h83.354
	v35.532c-0.168,0.268-0.389,0.553-0.549,0.812h0.549v-0.812c11.068-17.055,30.849-41.42,75.112-41.42
	C370.354,171.191,411.463,207.021,411.463,284.021z M69.837,56.24c-28.521,0-47.174,18.706-47.174,43.304
	c0,24.062,18.114,43.334,46.068,43.334h0.557c29.065,0,47.148-19.272,47.148-43.334C115.888,74.946,98.353,56.24,69.837,56.24z
	 M27.613,427.76h83.328V177.079H27.613V427.76z"/>
</svg>
