<?xml version="1.0" encoding="utf-8"?>
<!-- Generator: Adobe Illustrator 18.1.1, SVG Export Plug-In . SVG Version: 6.00 Build 0)  -->
<svg version="1.1" id="Layer_1" xmlns="http://www.w3.org/2000/svg" xmlns:xlink="http://www.w3.org/1999/xlink" x="0px" y="0px"
	 viewBox="119.3 170 507.3 310" enable-background="new 119.3 170 507.3 310" xml:space="preserve">
<g id="Layer_1_1_" display="none">
	<path display="inline" fill="#FFFFFF" stroke="#000000" stroke-miterlimit="10" d="M33234.6-3167.9
		c-2022.3,0-3056.4,1212.3-3056.4,4357.8c0,1622.7,213.3,2130.3,685.8,2913.3c693.9,1185.3,1836,1425.6,2351.7,1425.6
		c515.7,0,1657.8-248.4,2351.7-1425.6c464.4-801.9,685.8-1301.4,685.8-2913.3C36299.1-1963.7,35256.9-3167.9,33234.6-3167.9z"/>
</g>
<g>
	<path fill="#EC1C24" d="M276.1,341.6c-0.6,0-1.2,0.1-1.8,0.1c-2.3,5.9-4,10.9-4,13c0,5.7-12.7,10.9-14.6,13
		c-1.9,2.1-13.1,8.8-13.6,6.8c-0.5-2.1,0-8.3-3.4-9.4c-3.3-1-18.6-4-30.7-4.2c-12,0.1-27.3,3.1-30.7,4.2c-3.4,1-2.9,7.3-3.4,9.4
		c-0.5,2.1-11.7-4.7-13.6-6.8c-1.9-2.1-14.6-7.3-14.6-13c0-2.1-1.8-7.1-4-13c-0.6,0-1.2-0.1-1.7-0.1c-2.1-0.1-3.8-0.2-5.2-0.4
		c2.3,20.1,7.3,32.5,15.4,47.1c17.1,30.9,45.3,37.6,57.9,37.6s40.9-6.8,57.9-37.6c8-14.6,13-26.9,15.4-47.1
		C279.9,341.3,278.2,341.4,276.1,341.6z M231,395.8c-10.1,2.6-5.5-4.8-22.9-5c-17.4,0.2-12.9,7.6-22.9,5c-5.1-1.3-4.4-9.5-4.4-12
		c0-4.7,11.7-8.5,26.4-8.8v0c0.3,0,0.6,0,0.9,0c0.3,0,0.6,0,0.9,0v0c14.8,0.3,26.4,4.1,26.4,8.8C235.4,386.2,236,394.5,231,395.8z"
		/>
	<g>
		<path fill="#EC1C24" d="M124,311.1C124,311.1,124,311.1,124,311.1C124,311.2,124,311.2,124,311.1z"/>
		<path fill="#EC1C24" d="M292.1,311.2C292.1,311.1,292.1,311.1,292.1,311.2C292,311.2,292.1,311.2,292.1,311.2z"/>
		<path fill="#EC1C24" d="M292.1,297.9c-1.1-0.1-20.2-1.8-38.7-1.8c-18.5,0-35.9,4.1-39.2,4.8c-1.6,0.3-4,0.5-6.1,0.6
			c-2.1-0.1-4.5-0.2-6.1-0.6c-3.3-0.7-20.7-4.8-39.2-4.8c-18.5,0-37.6,1.6-38.7,1.8c-1,0.1,0,12.2,0,13.2c0.1-0.2,2.6-0.3,3.1,2.4
			c1.1,6.4,3.3,21.6,4,23.4c0.3,0.9,17.1,1.9,32.5,1.7c16.9-0.2,33.7-1.5,34.4-2.6c0.4-0.6,3.7-28.5,9.6-28.5c0.1,0,0.2,0,0.4,0
			c0.1,0,0.2,0,0.4,0c5.9,0,9.1,27.9,9.6,28.5c0.8,1.1,17.6,2.4,34.4,2.6c15.4,0.2,32.2-0.8,32.5-1.7c0.6-1.8,2.9-17,4-23.4
			c0.5-2.7,3-2.7,3.1-2.4C292.1,310.1,293.1,298,292.1,297.9z M198.1,311.5l0,0.5c-0.2,3.4-3,13.5-4,17.3l-0.2,0.9
			c-0.7,2.4-1,2.4-4.1,2.9l-0.8,0.1c-0.6,0.1-11.5,1.2-23.3,1.3l-1,0c-14.3,0-24.9-1.7-26.2-2.9c-2-2.2-5.8-25-4.6-27.7
			c1.3-2,2.5-2.6,6.9-3.2c4.4-0.6,9.7-0.9,15.9-0.9c4.3,0,9.1,0.2,14.1,0.4c14.3,0.8,22.7,3.1,25.2,4.2
			C198.4,305.6,198.3,307.7,198.1,311.5z M277.9,331.8c-1.3,1.2-11.9,2.9-26.2,2.9c0,0-1,0-1,0c-11.8-0.1-22.7-1.2-23.3-1.3
			l-0.8-0.1c-3.1-0.5-3.4-0.5-4.1-2.9l-0.2-0.9c-1-3.8-3.8-13.9-4-17.3l0-0.5c-0.2-3.8-0.3-5.9,2.1-6.9c2.5-1.1,10.9-3.3,25.2-4.2
			c5-0.3,9.8-0.4,14.1-0.4c6.2,0,11.5,0.3,15.9,0.9c4.4,0.6,5.6,1.1,6.9,3.2C283.7,306.8,279.9,329.6,277.9,331.8z"/>
	</g>
	<path fill="#EC1C24" d="M264.9,214.7c-1.7-0.9-3.5-1.8-5.4-2.8h0c-11.2-5.8-22.8-15.3-27.3-19.5c-0.4,1.2,0.1,3.2,0.9,5.4
		c-8.5-4.7-17.2-9.8-25-14.8c-10.9,7.1-23.7,14.2-35.3,20.4c0.7-2.3,1.1-4.7,0.4-6.7c-4.5,6-17.4,12.9-27.3,21.5
		c-2.6,2-5.1,4.4-7.3,7.5c0,0,0,0,0,0l0,0c-7.3,10-11.5,26.7-4.9,54.3c7.3-13.8,1.1-34.8,20.4-37.6c20.4-3,38.2,0,54,0
		c15.8,0,33.6-3,54,0c19.3,2.9,13.1,23.8,20.4,37.6C292.4,238.1,277.6,221.5,264.9,214.7z"/>
</g>
<g>
	<g>
		<path d="M404.8,399.3c0.2-20.1,1.6-40.2,3.9-60.1c3-26.1,7.1-52.1,12.5-77.8c1.6-7.5,3.3-14.9,5.3-22.3c0.6-2.1,6.3-16,5.3-17.4
			c-4.4-6.1-16.6-13-24.4-11.6c-11.6,13.6-21.9,37.7-30.5,64.6c6.9-40.5,12.5-76.2,12.7-89.8c-4.4-5.8-16.9-13-24.7-11.1
			c-26.1,25.5-54.6,77.3-54.6,115c0,30.2,13.9,45.2,30.8,36.6c-5.8-10.8-11.9-29.4-11.9-52.9c0-25.8,12.5-61,34.6-80.1
			c-5.3,83.7-17.5,164.9-32.4,219.8c3,4.7,11.6,7.2,17.5,5c4.4-19.1,11.6-54.9,18.8-92.9c9.1-34.4,21.9-71.5,36-90.9
			c-4.6,30.2-8.4,60.5-11.5,90.8c-1.9,18.3-2.6,36.7-3.8,55.1c-1.6,25.3-3.2,50.6-4,75.9c-0.1,4.3-0.4,8.7-0.2,13
			c0.1,2.6,0,3.8,3,3.7c5.5-0.1,11.5-2,16.3-4.7c5.4-2.9,3.2-9.6,3-14.7C405.9,434.8,404.8,417.1,404.8,399.3z"/>
		<path d="M618.4,225.1c-32.4,8.3-61.8,9.7-92,7.2c2.5-10.3,4.4-18.3,5.5-24.1c-5.5-6.4-17.2-11.6-24.9-10.8c-1.7,8-3.3,19.4-5,32.4
			c-12.2-1.4-33.6-3.5-56.8-8.3c-2.8,3.9-2.5,9.7,0,12.5c19.2,4.9,42.1,10,54.6,11.7c-3.1,25.3-6,54.7-8,80.3
			c-3.4,15.3-8.3,30.5-15,40.8c-1.1-23-0.8-56.8,11.4-91.5c-2.2-3.6-8.9-7.2-15.2-8.9l0.6-3.9c-3.6-6.7-14.1-17.7-21.1-17.5
			c-14.4,7.5-30.8,39.6-30.8,86.8c0,14.7,1.7,31,5.5,48.5c3,3,9.4,6.9,14.7,7.2c7.5-7.8,13.3-23,17.7-44.1c0,12.7,0.6,24.7,1.9,34.4
			c2.5,2.8,8.3,4.7,12.5,4.7c5-5.8,10.9-18.3,16.2-32.5c-0.5,10.1-0.8,18.8-0.7,25.6c2.2,3.3,10.3,7.2,15.8,6.9
			c4.8-5.5,10.5-16.5,15.9-29.2c1.2,8,3.3,16.2,6.3,24.5c3,2.8,9.7,5.3,16.1,5.3c23.6-12.3,48.8-56.8,48.8-85.9
			c0-10.5-5-12.5-8.9-11.4c-0.3,37.7-16.9,70.7-40.2,87c-2.8-5.3-5-14.1-5.3-26.6c3,2.5,6.7,4.2,10,5c18-16.6,25.2-56.5,26.1-70.1
			c-6.4-10.8-18-17.5-26.6-17.5c-13.6,7.2-27.7,35.2-27.7,70.1c0,2.6,0.1,5.2,0.2,7.9c-3.7,11.2-8.4,21.3-14.1,28.5
			c2.2-51,10-92.3,16.6-121.7c33.8,3,68.2,3,90.1,0.8C618.9,243.4,622,228.4,618.4,225.1z M460.4,311.3c-5,32.4-13,57.1-19.1,63.7
			c-0.6-4.7-4-19.5-4-35.8c-0.3-35.5,8-54,20.9-65.1c1.9,6.1,0,23.3-2.8,31.3c1.4,1.1,3.3,1.7,5.3,1.4L460.4,311.3z M555.7,284.9
			c1.4,6.9-1.7,38.8-11.1,56.5c-2.5-1.4-4.4-4.2-6.4-7.2C539.7,314.3,545.2,297.4,555.7,284.9z"/>
	</g>
	<g>
		<path d="M426.4,452.2v-50.8h6.6c4.4,0,7.9,0.8,10.2,3c2.3,2.1,3.5,5.5,3.5,10.5c0,2.4-0.2,4.2-1,5.9c-0.8,1.7-1.9,3-3.7,4.6
			c1.9,1,3.3,3,4.4,6.2c0.6,1.6,0.8,3.7,0.8,6.2c0,3.8-0.7,7.2-2.4,9.8c-1.7,2.6-4.7,4.4-9.1,4.6H426.4z M433.9,422.3
			c0.6,0,2.1,0.1,3.3-0.8c1.2-0.8,2.2-2.5,2.2-6c0-3.5-1-5.2-2.2-6c-1.2-0.8-2.7-0.8-3.3-0.8V422.3z M433.9,444.8
			c0.6,0,2.1,0.1,3.3-0.8c1.2-0.9,2.2-2.9,2.2-7.1c0-4.1-1-6.2-2.2-7.1c-1.2-0.9-2.7-0.8-3.3-0.8V444.8z"/>
		<path d="M450.1,452.2l7.7-50.8h9.1l7.7,50.8h-7.3l-1.4-10.4h-7.2l-1.4,10.4H450.1z M462.7,417.9l-0.2-1.3h-0.4l-0.2,1.3l-2.1,16
			h5.1L462.7,417.9z"/>
		<path d="M478.9,401.3h7.5v43.9h9.9v6.9h-17.4V401.3z"/>
		<path d="M500.4,452.2v-50.8h5.9c6.9,0,10.6,1.4,12.7,5.3c1.9,3.9,2.2,10.2,2.2,20.2c0,10-0.3,16.3-2.2,20.1
			c-2,3.9-5.7,5.3-12.7,5.3H500.4z M507.8,444.7c2.6,0,4-0.3,4.8-2.8c0.3-1.2,0.6-3,0.7-5.4c0.1-2.4,0.1-5.7,0.1-9.8
			c0-4.1,0-7.4-0.1-9.8c-0.1-2.4-0.3-4.1-0.7-5.4c-0.8-2.4-2.2-2.7-4.8-2.7V444.7z"/>
		<path d="M536.9,452.2h-5.8l-6.8-50.8h6.9l3,26.4l0.1,1.7h0.6l0.2-1.7l3.2-26.4h5.4l3.2,26.4l0.2,1.7h0.6l0.1-1.7l3-26.4h6.9
			l-6.8,50.8h-5.8l-3.5-24.1l-0.4-3h-0.3l-0.4,3L536.9,452.2z"/>
		<path d="M562,401.3h7.5v50.8H562V401.3z"/>
		<path d="M582.7,425.7l-0.6-2.4h-0.4v28.8h-6.8v-50.8h6.6l7.3,26.5l0.6,2.4h0.4v-28.8h6.8v50.8h-6.6L582.7,425.7z"/>
	</g>
</g>
</svg>
