<svg version="1.1" id="Layer_1" xmlns="http://www.w3.org/2000/svg" xmlns:xlink="http://www.w3.org/1999/xlink" x="0px" y="0px"
	 viewBox="0 0 309.6 298.4" style="enable-background:new 0 0 309.6 298.4;" xml:space="preserve">
<path d="M94.5,225.8c0.2-20.1,1.6-40.2,3.9-60.1c3-26.1,7.1-52.1,12.5-77.8c1.6-7.5,3.3-14.9,5.3-22.3c0.6-2.1,6.3-16,5.3-17.4
	c-4.4-6.1-16.6-13-24.4-11.6c-11.6,13.6-21.9,37.7-30.5,64.6C73.5,60.7,79.1,25,79.3,11.4c-4.4-5.8-16.9-13-24.7-11.1
	C28.5,25.8,0,77.6,0,115.3c0,30.2,13.9,45.2,30.8,36.6C25,141.1,18.9,122.5,18.9,99c0-25.8,12.5-61,34.6-80.1
	C48.2,102.6,36,183.8,21.1,238.7c3,4.7,11.6,7.2,17.5,5c4.4-19.1,11.6-54.9,18.8-92.9c9.1-34.4,21.9-71.5,36-90.9
	c-4.6,30.2-8.4,60.5-11.5,90.8c-1.9,18.3-2.6,36.7-3.8,55.1c-1.6,25.3-3.2,50.6-4,75.9c-0.1,4.3-0.4,8.7-0.2,13c0.1,2.6,0,3.8,3,3.7
	c5.5-0.1,11.5-2,16.3-4.7c5.4-2.9,3.2-9.6,3-14.7C95.6,261.3,94.5,243.6,94.5,225.8z M308.1,51.6c-32.4,8.3-61.8,9.7-92,7.2
	c2.5-10.3,4.4-18.3,5.5-24.1c-5.5-6.4-17.2-11.6-24.9-10.8c-1.7,8-3.3,19.4-5,32.4c-12.2-1.4-33.6-3.5-56.8-8.3
	c-2.8,3.9-2.5,9.7,0,12.5c19.2,4.9,42.1,10,54.6,11.7c-3.1,25.3-6,54.7-8,80.3c-3.4,15.3-8.3,30.5-15,40.8
	c-1.1-23-0.8-56.8,11.4-91.5c-2.2-3.6-8.9-7.2-15.2-8.9l0.6-3.9c-3.6-6.7-14.1-17.7-21.1-17.5c-14.4,7.5-30.8,39.6-30.8,86.8
	c0,14.7,1.7,31,5.5,48.5c3,3,9.4,6.9,14.7,7.2c7.5-7.8,13.3-23,17.7-44.1c0,12.7,0.6,24.7,1.9,34.4c2.5,2.8,8.3,4.7,12.5,4.7
	c5-5.8,10.9-18.3,16.2-32.5c-0.5,10.1-0.8,18.8-0.7,25.6c2.2,3.3,10.3,7.2,15.8,6.9c4.8-5.5,10.5-16.5,15.9-29.2
	c1.2,8,3.3,16.2,6.3,24.5c3,2.8,9.7,5.3,16.1,5.3c23.6-12.3,48.8-56.8,48.8-85.9c0-10.5-5-12.5-8.9-11.4
	c-0.3,37.7-16.9,70.7-40.2,87c-2.8-5.3-5-14.1-5.3-26.6c3,2.5,6.7,4.2,10,5c18-16.6,25.2-56.5,26.1-70.1
	c-6.4-10.8-18-17.5-26.6-17.5c-13.6,7.2-27.7,35.2-27.7,70.1c0,2.6,0.1,5.2,0.2,7.9c-3.7,11.2-8.4,21.3-14.1,28.5
	c2.2-51,10-92.3,16.6-121.7c33.8,3,68.2,3,90.1,0.8C308.6,69.9,311.7,54.9,308.1,51.6z M150.1,137.8c-5,32.4-13,57.1-19.1,63.7
	c-0.6-4.7-4-19.5-4-35.8c-0.3-35.5,8-54,20.9-65.1c1.9,6.1,0,23.3-2.8,31.3c1.4,1.1,3.3,1.7,5.3,1.4L150.1,137.8z M245.4,111.4
	c1.4,6.9-1.7,38.8-11.1,56.5c-2.5-1.4-4.4-4.2-6.4-7.2C229.4,140.8,234.9,123.9,245.4,111.4z M116.1,278.7v-50.8h6.6
	c4.4,0,7.9,0.8,10.2,3c2.3,2.1,3.5,5.5,3.5,10.5c0,2.4-0.2,4.2-1,5.9s-1.9,3-3.7,4.6c1.9,1,3.3,3,4.4,6.2c0.6,1.6,0.8,3.7,0.8,6.2
	c0,3.8-0.7,7.2-2.4,9.8c-1.7,2.6-4.7,4.4-9.1,4.6H116.1L116.1,278.7z M123.6,248.8c0.6,0,2.1,0.1,3.3-0.8c1.2-0.8,2.2-2.5,2.2-6
	s-1-5.2-2.2-6s-2.7-0.8-3.3-0.8C123.6,235.2,123.6,248.8,123.6,248.8z M123.6,271.3c0.6,0,2.1,0.1,3.3-0.8s2.2-2.9,2.2-7.1
	c0-4.1-1-6.2-2.2-7.1s-2.7-0.8-3.3-0.8C123.6,255.5,123.6,271.3,123.6,271.3z M139.8,278.7l7.7-50.8h9.1l7.7,50.8H157l-1.4-10.4
	h-7.2l-1.4,10.4H139.8z M152.4,244.4l-0.2-1.3h-0.4l-0.2,1.3l-2.1,16h5.1L152.4,244.4z M168.6,227.8h7.5v43.9h9.9v6.9h-17.4V227.8z
	 M190.1,278.7v-50.8h5.9c6.9,0,10.6,1.4,12.7,5.3c1.9,3.9,2.2,10.2,2.2,20.2c0,10-0.3,16.3-2.2,20.1c-2,3.9-5.7,5.3-12.7,5.3
	L190.1,278.7L190.1,278.7z M197.5,271.2c2.6,0,4-0.3,4.8-2.8c0.3-1.2,0.6-3,0.7-5.4c0.1-2.4,0.1-5.7,0.1-9.8c0-4.1,0-7.4-0.1-9.8
	s-0.3-4.1-0.7-5.4c-0.8-2.4-2.2-2.7-4.8-2.7V271.2z M226.6,278.7h-5.8l-6.8-50.8h6.9l3,26.4l0.1,1.7h0.6l0.2-1.7l3.2-26.4h5.4
	l3.2,26.4l0.2,1.7h0.6l0.1-1.7l3-26.4h6.9l-6.8,50.8h-5.8l-3.5-24.1l-0.4-3h-0.3l-0.4,3L226.6,278.7z M251.7,227.8h7.5v50.8h-7.5
	L251.7,227.8L251.7,227.8z M272.4,252.2l-0.6-2.4h-0.4v28.8h-6.8v-50.8h6.6l7.3,26.5l0.6,2.4h0.4v-28.8h6.8v50.8h-6.6L272.4,252.2z"
	/>
</svg>
