<?xml version="1.0" encoding="utf-8"?>
<svg version="1.1" id="Layer_1" xmlns="http://www.w3.org/2000/svg" xmlns:xlink="http://www.w3.org/1999/xlink" x="0px" y="0px"
	 viewBox="0 0 432 484" enable-background="new 0 0 432 484" xml:space="preserve">
<path id="Dribbble_3_" fill="#FFFFFF" d="M212.721,48.192C105.356,48.2,18.33,135.231,18.33,242.6
	c0,107.352,87.026,194.391,194.391,194.391c107.369,0,194.4-87.039,194.409-194.391C407.121,135.231,320.09,48.2,212.721,48.192z
	 M331.845,148.986c18.96,24.084,30.84,53.909,32.34,86.478c-21.954-4.657-42.686-6.925-62.014-6.925v-0.004h-0.143
	c-15.561,0-30.171,1.413-43.934,3.853c-3.348-8.199-6.735-16.075-10.152-23.617C278.592,195.322,308.016,176.176,331.845,148.986z
	 M212.721,90.93c35.783,0,68.597,12.506,94.578,33.329c-19.881,23.803-46.129,41.044-74.477,53.218
	c-19.92-38.521-39.174-66.079-52.328-82.927C190.909,92.239,201.662,90.93,212.721,90.93z M145.735,106.741
	c10.524,12.433,31.605,39.783,54.117,82.486c-45.783,13.63-91.886,16.831-119.781,16.822c-0.795,0-1.585,0-2.354-0.009h-0.035
	c-4.692,0-8.731-0.073-12.109-0.177C76.464,162.318,106.302,126.259,145.735,106.741z M61.059,242.6
	c0-0.713,0.026-1.439,0.069-2.186c4.329,0.16,9.88,0.298,16.563,0.298h0.043c30.486-0.199,83.717-2.748,137.657-19.777
	c2.946,6.428,5.849,13.124,8.731,20.075c-36.02,12.048-64.394,31.242-85.38,50.358c-20.2,18.403-33.852,36.625-41.826,48.794
	C74.602,313.742,61.068,279.787,61.059,242.6z M212.721,394.271c-33.748,0-64.86-11.163-90.094-29.894
	c5.365-8.834,16.865-25.79,35.178-43.317c18.84-18.058,44.855-36.642,78.814-47.706c11.543,32.357,21.989,69.349,29.946,110.985
	C249.804,390.725,231.69,394.271,212.721,394.271z M298.564,367.345c-7.694-37.657-17.371-71.613-27.994-101.917
	c9.854-1.413,20.192-2.212,31.108-2.212h0.389h0.026h0.026c18.092,0,37.969,2.251,59.525,7.15
	C354.184,310.468,330.955,345.002,298.564,367.345z"/>
</svg>
