<?xml version="1.0" encoding="utf-8"?>
<!-- Generator: Adobe Illustrator 17.1.0, SVG Export Plug-In . SVG Version: 6.00 Build 0)  -->
<!DOCTYPE svg PUBLIC "-//W3C//DTD SVG 1.1//EN" "http://www.w3.org/Graphics/SVG/1.1/DTD/svg11.dtd">
<svg version="1.1" id="Layer_1" xmlns="http://www.w3.org/2000/svg" xmlns:xlink="http://www.w3.org/1999/xlink" x="0px" y="0px"
	 viewBox="0 0 432 484" enable-background="new 0 0 432 484" xml:space="preserve">
<path id="Vimeo_2_" fill="#FFFFFF" d="M353.199,73.593c-54.052-1.763-90.629,28.555-109.78,90.992
	c9.863-4.061,19.449-6.113,28.797-6.113c19.708,0,28.434,11.064,26.106,33.247c-1.158,13.431-9.863,32.975-26.106,58.627
	c-16.308,25.691-28.486,38.517-36.577,38.517c-10.506,0-20.066-19.85-28.797-59.499c-2.929-11.677-8.16-41.412-15.66-89.277
	c-7.029-44.332-25.6-65.046-55.797-62.135c-12.774,1.171-31.912,12.865-57.452,35.009c-18.628,16.926-37.506,33.856-56.7,50.769
	l18.282,23.604c17.448-12.26,27.657-18.36,30.495-18.36c13.375,0,25.877,20.987,37.498,62.96
	c10.428,38.547,20.935,77.043,31.406,115.534c15.6,42.003,34.828,63.012,57.452,63.012c36.586,0,81.38-34.409,134.205-103.248
	c51.106-65.906,77.492-117.832,79.272-155.788C412.188,100.719,393.31,74.743,353.199,73.593z"/>
</svg>
