<?xml version="1.0" encoding="utf-8"?>
<!-- Generator: Adobe Illustrator 17.1.0, SVG Export Plug-In . SVG Version: 6.00 Build 0)  -->
<!DOCTYPE svg PUBLIC "-//W3C//DTD SVG 1.1//EN" "http://www.w3.org/Graphics/SVG/1.1/DTD/svg11.dtd">
<svg version="1.1" id="Layer_1" xmlns="http://www.w3.org/2000/svg" xmlns:xlink="http://www.w3.org/1999/xlink" x="0px" y="0px"
	 viewBox="0 0 432 484" enable-background="new 0 0 432 484" xml:space="preserve">
<path id="Behance_3_" fill="#FFFFFF" d="M373.784,155.276h-97.429v-24.201h97.429V155.276z M211.503,254.506
	c6.286,9.733,9.426,21.557,9.426,35.433c0,14.355-3.542,27.229-10.748,38.604c-4.584,7.53-10.277,13.884-17.112,18.999
	c-7.703,5.923-16.826,9.979-27.302,12.148c-10.515,2.173-21.898,3.27-34.158,3.27H22.654V121.04h116.834
	c29.454,0.48,50.328,9.012,62.657,25.769c7.4,10.277,11.064,22.607,11.064,36.94c0,14.792-3.711,26.624-11.18,35.618
	c-4.152,5.041-10.295,9.625-18.42,13.764C195.921,237.637,205.26,244.735,211.503,254.506z M78.451,216.417h51.192
	c10.515,0,19.025-2,25.574-5.996c6.54-3.992,9.806-11.085,9.806-21.272c0-11.254-4.32-18.723-12.995-22.317
	c-7.452-2.497-16.986-3.789-28.551-3.789H78.451V216.417z M169.957,286.487c0-12.571-5.136-21.259-15.388-25.916
	c-5.728-2.652-13.82-4.005-24.192-4.1H78.451v64.467h51.123c10.498,0,18.628-1.374,24.494-4.242
	C164.648,311.422,169.957,301.387,169.957,286.487z M409.92,247.132c1.179,7.914,1.706,19.397,1.495,34.404h-126.17
	c0.7,17.418,6.709,29.596,18.114,36.564c6.869,4.372,15.206,6.506,24.974,6.506c10.286,0,18.68-2.605,25.142-7.953
	c3.517-2.834,6.623-6.839,9.305-11.884h46.246c-1.214,10.282-6.782,20.714-16.783,31.32c-15.509,16.844-37.251,25.298-65.172,25.298
	c-23.069,0-43.403-7.128-61.046-21.328C248.435,325.812,239.6,302.7,239.6,270.642c0-30.063,7.932-53.071,23.846-69.09
	c15.971-16.044,36.586-24.032,61.992-24.032c15.06,0,28.637,2.691,40.746,8.104c12.083,5.417,22.054,13.945,29.92,25.661
	C403.212,221.605,407.795,233.537,409.92,247.132z M364.409,251.647c-0.851-12.044-4.877-21.159-12.109-27.389
	c-7.188-6.247-16.157-9.383-26.857-9.383c-11.651,0-20.637,3.352-27.035,9.94c-6.428,6.575-10.437,15.513-12.074,26.832
	L364.409,251.647L364.409,251.647z"/>
</svg>
