<?xml version="1.0" encoding="utf-8"?><svg xmlns="http://www.w3.org/2000/svg" viewBox="0 0 96 96"><switch><g><path d="M80 4c-6.628 0-12 5.372-12 12v64c0 6.628 5.372 12 12 12s12-5.372 12-12V16c0-6.628-5.372-12-12-12zm4 76a4 4 0 0 1-8 0V16a4 4 0 0 1 8 0v64zM48 28c-6.628 0-12 5.372-12 12v40c0 6.628 5.372 12 12 12s12-5.372 12-12V40c0-6.628-5.372-12-12-12zm4 52a4 4 0 0 1-8 0V40a4 4 0 0 1 8 0v40zM16 52C9.372 52 4 57.372 4 64v16c0 6.628 5.372 12 12 12s12-5.372 12-12V64c0-6.628-5.372-12-12-12zm4 28a4 4 0 0 1-8 0V64a4 4 0 0 1 8 0v16z"/></g></switch></svg>