<?xml version="1.0" encoding="utf-8"?><svg xmlns="http://www.w3.org/2000/svg" viewBox="0 0 432 484"><path d="M373.784 155.276h-97.429v-24.201h97.429v24.201zm-162.281 99.23c6.286 9.733 9.426 21.557 9.426 35.433 0 14.355-3.542 27.229-10.748 38.604-4.584 7.53-10.277 13.884-17.112 18.999-7.703 5.923-16.826 9.979-27.302 12.148-10.515 2.173-21.898 3.27-34.158 3.27H22.654V121.04h116.834c29.454.48 50.328 9.012 62.657 25.769 7.4 10.277 11.064 22.607 11.064 36.94 0 14.792-3.711 26.624-11.18 35.618-4.152 5.041-10.295 9.625-18.42 13.764 12.312 4.506 21.651 11.604 27.894 21.375zM78.451 216.417h51.192c10.515 0 19.025-2 25.574-5.996 6.54-3.992 9.806-11.085 9.806-21.272 0-11.254-4.32-18.723-12.995-22.317-7.452-2.497-16.986-3.789-28.551-3.789H78.451v53.374zm91.506 70.07c0-12.571-5.136-21.259-15.388-25.916-5.728-2.652-13.82-4.005-24.192-4.1H78.451v64.467h51.123c10.498 0 18.628-1.374 24.494-4.242 10.58-5.274 15.889-15.309 15.889-30.209zm239.963-39.355c1.179 7.914 1.706 19.397 1.495 34.404h-126.17c.7 17.418 6.709 29.596 18.114 36.564 6.869 4.372 15.206 6.506 24.974 6.506 10.286 0 18.68-2.605 25.142-7.953 3.517-2.834 6.623-6.839 9.305-11.884h46.246c-1.214 10.282-6.782 20.714-16.783 31.32-15.509 16.844-37.251 25.298-65.172 25.298-23.069 0-43.403-7.128-61.046-21.328-17.59-14.247-26.425-37.359-26.425-69.417 0-30.063 7.932-53.071 23.846-69.09 15.971-16.044 36.586-24.032 61.992-24.032 15.06 0 28.637 2.691 40.746 8.104 12.083 5.417 22.054 13.945 29.92 25.661 7.108 10.32 11.691 22.252 13.816 35.847zm-45.511 4.515c-.851-12.044-4.877-21.159-12.109-27.389-7.188-6.247-16.157-9.383-26.857-9.383-11.651 0-20.637 3.352-27.035 9.94-6.428 6.575-10.437 15.513-12.074 26.832h78.075z"/></svg>