<?xml version="1.0" encoding="utf-8"?><svg xmlns="http://www.w3.org/2000/svg" viewBox="0 0 96 96"><switch><g><path d="M96 76c-8-8-12-20-16-40C76.534 18.673 65.67 4 48 4S19.465 18.673 16 36C12 56 8 68 0 76h36.697A11.97 11.97 0 0 0 36 80c0 6.627 5.373 12 12 12s12-5.373 12-12a11.97 11.97 0 0 0-.697-4H96zM23.845 37.568C25.044 31.57 30.332 12 48 12s22.956 19.571 24.155 25.568c2.479 12.399 5.03 22.343 8.823 30.432H15.021c3.793-8.089 6.344-18.033 8.824-30.432zM52 80c0 2.206-1.794 4-4 4s-4-1.794-4-4 1.794-4 4-4 4 1.794 4 4z"/></g></switch></svg>