<?xml version="1.0" encoding="utf-8"?><svg xmlns="http://www.w3.org/2000/svg" viewBox="0 0 96 96"><switch><g><path d="M48 4C23.7 4 4 23.699 4 48s19.7 44 44 44 44-19.699 44-44S72.3 4 48 4zm0 80c-19.882 0-36-16.118-36-36s16.118-36 36-36 36 16.118 36 36-16.118 36-36 36zm14.143-50.141a4.002 4.002 0 0 0-5.658 0L48 42.343l-8.484-8.483a4 4 0 1 0-5.658 5.656L42.343 48l-8.485 8.484a4 4 0 1 0 5.658 5.656L48 53.657l8.484 8.483a4 4 0 1 0 5.658-5.656L53.657 48l8.485-8.484a4.001 4.001 0 0 0 .001-5.657z"/></g></switch></svg>