<?xml version="1.0" encoding="utf-8"?><svg xmlns="http://www.w3.org/2000/svg" viewBox="0 0 96 96"><switch><g><path d="M66.828 65.172a4 4 0 0 1 0 5.656l-12 12a4 4 0 0 1-5.656 0l-12-12a4 4 0 1 1 5.656-5.656L48 70.343V44a4 4 0 0 1 8 0v26.343l5.172-5.171a3.997 3.997 0 0 1 5.656 0zM60 8C44.327 8 31.002 18.02 26.058 32h-2.057C10.746 32 0 42.745 0 56.001c0 13.255 10.746 24.001 24.001 24.001l.077-.002h10.951l-3.515-3.515a11.937 11.937 0 0 1-2.829-4.486H24c-2.209 0-4.313-.447-6.228-1.257C12.029 68.313 8 62.627 8 56c0-8.837 7.164-16 16-16h8.298C34.24 26.434 45.896 16 60 16c15.464 0 28 12.536 28 28 0 9.532-4.764 17.952-12.041 23.01a11.965 11.965 0 0 1-.838 5.502 11.931 11.931 0 0 1-2.636 3.974l-1.948 1.948C85.278 73.928 96 60.216 96 44 96 24.118 79.882 8 60 8z"/></g></switch></svg>