<?xml version="1.0" encoding="utf-8"?><svg xmlns="http://www.w3.org/2000/svg" viewBox="0 0 96 96"><switch><g><path d="M84 60c6.627 0 12-5.373 12-12s-5.373-12-12-12h-2.049a35.762 35.762 0 0 0-1.46-3.521l1.45-1.449c4.686-4.687 4.686-12.284 0-16.971-4.687-4.686-12.284-4.686-16.971 0l-1.449 1.45A35.863 35.863 0 0 0 60 14.049V12c0-6.627-5.373-12-12-12S36 5.373 36 12v2.049a35.762 35.762 0 0 0-3.521 1.46l-1.449-1.45c-4.687-4.686-12.284-4.686-16.971 0-4.686 4.687-4.686 12.284 0 16.971l1.45 1.449A35.863 35.863 0 0 0 14.049 36H12C5.373 36 0 41.373 0 48s5.373 12 12 12h2.049a35.762 35.762 0 0 0 1.46 3.521l-1.45 1.449c-4.686 4.687-4.686 12.284 0 16.971 4.687 4.686 12.284 4.686 16.971 0l1.449-1.45A35.863 35.863 0 0 0 36 81.951V84c0 6.627 5.373 12 12 12s12-5.373 12-12v-2.049a35.762 35.762 0 0 0 3.521-1.46l1.449 1.45c4.687 4.686 12.284 4.686 16.971 0 4.686-4.687 4.686-12.284 0-16.971l-1.45-1.449A35.863 35.863 0 0 0 81.951 60H84zm-8.283-8a27.871 27.871 0 0 1-5.291 12.769l5.701 5.702.157.156a4 4 0 0 1-5.657 5.657l-.156-.157-5.702-5.701A27.871 27.871 0 0 1 52 75.717V84a4 4 0 0 1-8 0v-8.283a27.871 27.871 0 0 1-12.769-5.291l-5.702 5.701-.156.157a4 4 0 0 1-5.657-5.657l.157-.156 5.701-5.702A27.871 27.871 0 0 1 20.283 52H12a4 4 0 0 1 0-8h8.283a27.871 27.871 0 0 1 5.291-12.769l-5.701-5.702-.157-.156a4 4 0 0 1 5.657-5.657l.156.157 5.702 5.701A27.867 27.867 0 0 1 44 20.283V12a4 4 0 0 1 8 0v8.283a27.871 27.871 0 0 1 12.769 5.291l5.702-5.701.156-.157a4 4 0 0 1 5.657 5.657l-.157.156-5.701 5.702A27.867 27.867 0 0 1 75.717 44H84a4 4 0 0 1 0 8h-8.283zM48 32c-8.837 0-16 7.163-16 16s7.163 16 16 16 16-7.163 16-16-7.163-16-16-16zm0 24a8 8 0 1 1 0-16 8 8 0 0 1 0 16z"/></g></switch></svg>