<?xml version="1.0" encoding="utf-8"?><svg xmlns="http://www.w3.org/2000/svg" viewBox="0 0 96 96"><switch><g><path d="M76 32h12a4 4 0 0 0 0-8H76c-2.21 0-4-1.79-4-4V8a4 4 0 0 0-8 0v12c0 6.627 5.373 12 12 12zM8 32h12c6.627 0 12-5.373 12-12V8a4 4 0 0 0-8 0v12c0 2.21-1.79 4-4 4H8a4 4 0 0 0 0 8zm60 60a4 4 0 0 0 4-4V76c0-2.21 1.79-4 4-4h12a4 4 0 0 0 0-8H76c-6.627 0-12 5.373-12 12v12a4 4 0 0 0 4 4zM8 72h12c2.21 0 4 1.79 4 4v12a4 4 0 0 0 8 0V76c0-6.627-5.373-12-12-12H8a4 4 0 0 0 0 8z"/></g></switch></svg>