<?xml version="1.0" encoding="utf-8"?><svg xmlns="http://www.w3.org/2000/svg" viewBox="0 0 96 96"><switch><g><path d="M84 12H32L0 48l32 36h52c6.627 0 12-5.373 12-12V24c0-6.627-5.373-12-12-12zm4 60c0 2.206-1.794 4-4 4H35.593L10.704 48l24.889-28H84c2.206 0 4 1.794 4 4v48zM74.828 57.172a4 4 0 1 1-5.656 5.656L60 53.657l-9.172 9.171C50.047 63.609 49.023 64 48 64s-2.047-.391-2.828-1.172a4 4 0 0 1 0-5.656L54.343 48l-9.171-9.172a4 4 0 1 1 5.656-5.656L60 42.343l9.172-9.171a4 4 0 1 1 5.656 5.656L65.657 48l9.171 9.172z"/></g></switch></svg>