<?xml version="1.0" encoding="utf-8"?><svg xmlns="http://www.w3.org/2000/svg" viewBox="0 0 96 96"><switch><g><path d="M48 92a43.786 43.786 0 0 1-16.156-3.062 43.84 43.84 0 0 1-13.464-8.4C10.319 73.195 5.29 63.201 4.217 52.396a4.001 4.001 0 0 1 7.961-.791c.877 8.836 4.993 17.011 11.589 23.019A35.847 35.847 0 0 0 48 84a35.779 35.779 0 0 0 20.125-6.145c1.907-1.289 3.701-2.769 5.331-4.398s3.109-3.424 4.398-5.331a35.998 35.998 0 0 0 3.318-6.113A35.77 35.77 0 0 0 84 48a35.87 35.87 0 0 0-9.377-24.234C68.615 17.17 60.44 13.054 51.604 12.177a4 4 0 0 1 .791-7.961c10.806 1.073 20.8 6.104 28.142 14.163a43.84 43.84 0 0 1 8.4 13.464A43.776 43.776 0 0 1 92 48a43.737 43.737 0 0 1-3.459 17.128 44.124 44.124 0 0 1-23.414 23.414A43.745 43.745 0 0 1 48 92zm2.828-46.828L17.657 12H32a4 4 0 0 0 0-8H8a4 4 0 0 0-4 4v24a4 4 0 0 0 8 0V17.657l33.172 33.171C45.953 51.609 46.977 52 48 52s2.047-.391 2.828-1.172a3.997 3.997 0 0 0 0-5.656z"/></g></switch></svg>