<?xml version="1.0" encoding="utf-8"?><svg xmlns="http://www.w3.org/2000/svg" viewBox="0 0 96 96"><switch><g><path d="M80 4H16C9.373 4 4 9.373 4 16v64c0 6.627 5.373 12 12 12h64c6.627 0 12-5.373 12-12V16c0-6.627-5.373-12-12-12zm4 76c0 2.21-1.79 4-4 4H29.657L64 49.657l20 19.999V80zm0-21.656l-20-20L18.343 84H16c-2.21 0-4-1.79-4-4V16c0-2.21 1.79-4 4-4h64c2.21 0 4 1.79 4 4v42.344zM32 20c-6.627 0-12 5.373-12 12s5.373 12 12 12 12-5.373 12-12-5.373-12-12-12zm0 16a4 4 0 1 1 0-8 4 4 0 0 1 0 8z"/></g></switch></svg>