<?xml version="1.0" encoding="utf-8"?><svg xmlns="http://www.w3.org/2000/svg" viewBox="0 0 96 96"><switch><g><path d="M56 72c.652 0 1.299-.02 1.941-.059-.311.35-.635.693-.971 1.029l-12 12c-9.373 9.373-24.569 9.373-33.941 0-9.373-9.373-9.373-24.568 0-33.941l12-12c.336-.335.679-.659 1.028-.971 7.356-6.548 17.774-7.788 26.29-3.721a23.968 23.968 0 0 1 6.623 4.691 23.956 23.956 0 0 1 4.691 6.623A7.97 7.97 0 0 1 56 48a7.994 7.994 0 0 1-2.348-.35 16.133 16.133 0 0 0-5.302-5.303c-6.162-3.776-14.328-2.997-19.664 2.339l-3.602 3.603-8.398 8.397c-6.248 6.248-6.248 16.379 0 22.629 6.249 6.248 16.38 6.248 22.628 0l8.397-8.398A32.1 32.1 0 0 0 56 72zm28.971-60.971c-9.373-9.372-24.568-9.372-33.941 0l-12 12c-.336.336-.659.679-.971 1.029a32.037 32.037 0 0 1 10.229 1.026l8.397-8.397c6.25-6.249 16.381-6.249 22.629 0 6.248 6.248 6.248 16.379 0 22.628l-8.398 8.397-3.602 3.603c-5.336 5.334-13.502 6.113-19.665 2.338a16.093 16.093 0 0 1-5.302-5.302A7.973 7.973 0 0 0 40 48a7.973 7.973 0 0 0-5.662 2.348 23.998 23.998 0 0 0 4.691 6.623 23.993 23.993 0 0 0 6.622 4.691c8.516 4.068 18.934 2.828 26.29-3.721a23.47 23.47 0 0 0 1.029-.971l12-12c9.374-9.373 9.374-24.568.001-33.941z"/></g></switch></svg>