<?xml version="1.0" encoding="utf-8"?><svg xmlns="http://www.w3.org/2000/svg" viewBox="0 0 96 96"><switch><g><path d="M40.001 7.969c-2.21 0-4 1.789-4 4V30.31L10.847 5.168a4.025 4.025 0 0 0-5.676 0 4.023 4.023 0 0 0 0 5.676l25.141 25.155h-18.34c-2.211 0-4 1.79-4 4s1.789 4 4 4h28c2.209 0 4.029-1.82 4.029-4.029V11.969c0-2.211-1.79-4-4-4zm50.828 77.186L65.688 59.999h18.341a4 4 0 1 0 0-8H56.028c-2.211 0-4.027 1.822-4.027 4.032v28c0 2.21 1.79 4 4 4s4-1.79 4-4V65.69l25.155 25.141a4.02 4.02 0 0 0 5.673 0 4.023 4.023 0 0 0 0-5.676z"/></g></switch></svg>