<?xml version="1.0" encoding="utf-8"?><svg xmlns="http://www.w3.org/2000/svg" viewBox="0 0 96 96"><switch><g><path d="M94.828 45.171l-14.14-14.142a4.002 4.002 0 0 0-5.658 5.657L82.344 44H52V13.658l7.312 7.312a4.002 4.002 0 0 0 5.658-5.657L50.828 1.171a4 4 0 0 0-5.657 0L31.029 15.314a4 4 0 0 0 5.656 5.657L44 13.658V44H13.657l7.313-7.313a4 4 0 1 0-5.658-5.657L1.171 45.171a4 4 0 0 0 0 5.657l14.144 14.143a4 4 0 1 0 5.656-5.656L13.657 52H44v30.344l-7.312-7.314a4.002 4.002 0 0 0-5.658 5.658L45.172 94.83a4.002 4.002 0 0 0 5.657 0l14.144-14.143a4.002 4.002 0 0 0-5.658-5.658L52 82.344V52h30.343l-7.313 7.312a4.002 4.002 0 0 0 5.658 5.658L94.83 50.827a4 4 0 0 0-.002-5.656z"/></g></switch></svg>