<?xml version="1.0" encoding="utf-8"?><svg xmlns="http://www.w3.org/2000/svg" viewBox="0 0 96 96"><switch><g><path d="M16 32C9.37 32 4 37.537 4 44.167V52c0 6.63 5.37 12 12 12h8l20 20V12L24 32h-8zm13.656 5.657l6.343-6.5L36 31v33.688l-6.343-6.345L27.312 56H16c-2.206 0-4-1.794-4-4v-7.833C12 41.908 13.832 40 16 40h11.312l2.344-2.343zm57.172 19.515a4 4 0 1 1-5.656 5.656L72 53.657l-9.172 9.171C62.047 63.609 61.023 64 60 64s-2.047-.391-2.828-1.172a4 4 0 0 1 0-5.656L66.343 48l-9.171-9.172a4 4 0 1 1 5.656-5.656L72 42.343l9.172-9.171a4 4 0 1 1 5.656 5.656L77.657 48l9.171 9.172z"/></g></switch></svg>