<?xml version="1.0" encoding="utf-8"?><svg xmlns="http://www.w3.org/2000/svg" viewBox="0 0 168 242.9"><path d="M33083.2-3201.4c-2022.3 0-3056.4 1212.3-3056.4 4357.8 0 1622.7 213.3 2130.3 685.8 2913.3 693.9 1185.3 1836 1425.6 2351.7 1425.6 515.7 0 1657.8-248.4 2351.7-1425.6 464.4-801.9 685.8-1301.4 685.8-2913.3 45.9-3153.6-996.3-4357.8-3018.6-4357.8zM152 158.6c-.6 0-1.2.1-1.8.1-2.3 5.9-4 10.9-4 13 0 5.7-12.7 10.9-14.6 13s-13.1 8.8-13.6 6.8c-.5-2.1 0-8.3-3.4-9.4-3.3-1-18.6-4-30.7-4.2-12 .1-27.3 3.1-30.7 4.2-3.4 1-2.9 7.3-3.4 9.4s-11.7-4.7-13.6-6.8-14.6-7.3-14.6-13c0-2.1-1.8-7.1-4-13-.6 0-1.2-.1-1.7-.1-2.1-.1-3.8-.2-5.2-.4 2.3 20.1 7.3 32.5 15.4 47.1 17.1 30.9 45.3 37.6 57.9 37.6s40.9-6.8 57.9-37.6c8-14.6 13-26.9 15.4-47.1-1.5.1-3.2.2-5.3.4zm-45.1 54.2c-10.1 2.6-5.5-4.8-22.9-5-17.4.2-12.9 7.6-22.9 5-5.1-1.3-4.4-9.5-4.4-12 0-4.7 11.7-8.5 26.4-8.8h1.8c14.8.3 26.4 4.1 26.4 8.8 0 2.4.6 10.7-4.4 12zm-107-84.7c0 .1 0 .1 0 0zm168.1.1c0-.1 0-.1 0 0-.1 0 0 0 0 0zm0-13.3c-1.1-.1-20.2-1.8-38.7-1.8s-35.9 4.1-39.2 4.8c-1.6.3-4 .5-6.1.6-2.1-.1-4.5-.2-6.1-.6-3.3-.7-20.7-4.8-39.2-4.8S1.1 114.7 0 114.9c-1 .1 0 12.2 0 13.2.1-.2 2.6-.3 3.1 2.4 1.1 6.4 3.3 21.6 4 23.4.3.9 17.1 1.9 32.5 1.7 16.9-.2 33.7-1.5 34.4-2.6.4-.6 3.7-28.5 9.6-28.5h.8c5.9 0 9.1 27.9 9.6 28.5.8 1.1 17.6 2.4 34.4 2.6 15.4.2 32.2-.8 32.5-1.7.6-1.8 2.9-17 4-23.4.5-2.7 3-2.7 3.1-2.4 0-1 1-13.1 0-13.2zm-94 13.6v.5c-.2 3.4-3 13.5-4 17.3l-.2.9c-.7 2.4-1 2.4-4.1 2.9l-.8.1c-.6.1-11.5 1.2-23.3 1.3h-1c-14.3 0-24.9-1.7-26.2-2.9-2-2.2-5.8-25-4.6-27.7 1.3-2 2.5-2.6 6.9-3.2s9.7-.9 15.9-.9c4.3 0 9.1.2 14.1.4 14.3.8 22.7 3.1 25.2 4.2 2.4 1.2 2.3 3.3 2.1 7.1zm79.8 20.3c-1.3 1.2-11.9 2.9-26.2 2.9h-1c-11.8-.1-22.7-1.2-23.3-1.3l-.8-.1c-3.1-.5-3.4-.5-4.1-2.9l-.2-.9c-1-3.8-3.8-13.9-4-17.3v-.5c-.2-3.8-.3-5.9 2.1-6.9 2.5-1.1 10.9-3.3 25.2-4.2 5-.3 9.8-.4 14.1-.4 6.2 0 11.5.3 15.9.9s5.6 1.1 6.9 3.2c1.2 2.5-2.6 25.3-4.6 27.5zm-13-117.1c-1.7-.9-3.5-1.8-5.4-2.8-11.2-5.8-22.8-15.3-27.3-19.5-.4 1.2.1 3.2.9 5.4C100.5 10.1 91.8 5 84 0 73.1 7.1 60.3 14.2 48.7 20.4c.7-2.3 1.1-4.7.4-6.7-4.5 6-17.4 12.9-27.3 21.5-2.6 2-5.1 4.4-7.3 7.5C7.2 52.7 3 69.4 9.6 97c7.3-13.8 1.1-34.8 20.4-37.6 20.4-3 38.2 0 54 0s33.6-3 54 0c19.3 2.9 13.1 23.8 20.4 37.6 9.9-41.9-4.9-58.5-17.6-65.3z"/></svg>