<?xml version="1.0" encoding="utf-8"?><svg xmlns="http://www.w3.org/2000/svg" viewBox="119.3 170 507.3 310"><g fill="#EC1C24"><path d="M276.1 341.6c-.6 0-1.2.1-1.8.1-2.3 5.9-4 10.9-4 13 0 5.7-12.7 10.9-14.6 13-1.9 2.1-13.1 8.8-13.6 6.8-.5-2.1 0-8.3-3.4-9.4-3.3-1-18.6-4-30.7-4.2-12 .1-27.3 3.1-30.7 4.2-3.4 1-2.9 7.3-3.4 9.4-.5 2.1-11.7-4.7-13.6-6.8-1.9-2.1-14.6-7.3-14.6-13 0-2.1-1.8-7.1-4-13-.6 0-1.2-.1-1.7-.1-2.1-.1-3.8-.2-5.2-.4 2.3 20.1 7.3 32.5 15.4 47.1 17.1 30.9 45.3 37.6 57.9 37.6s40.9-6.8 57.9-37.6c8-14.6 13-26.9 15.4-47.1-1.5.1-3.2.2-5.3.4zM231 395.8c-10.1 2.6-5.5-4.8-22.9-5-17.4.2-12.9 7.6-22.9 5-5.1-1.3-4.4-9.5-4.4-12 0-4.7 11.7-8.5 26.4-8.8h1.8c14.8.3 26.4 4.1 26.4 8.8 0 2.4.6 10.7-4.4 12zM124 311.1c0 .1 0 .1 0 0zM292.1 311.2c0-.1 0-.1 0 0-.1 0 0 0 0 0z"/><path d="M292.1 297.9c-1.1-.1-20.2-1.8-38.7-1.8-18.5 0-35.9 4.1-39.2 4.8-1.6.3-4 .5-6.1.6-2.1-.1-4.5-.2-6.1-.6-3.3-.7-20.7-4.8-39.2-4.8-18.5 0-37.6 1.6-38.7 1.8-1 .1 0 12.2 0 13.2.1-.2 2.6-.3 3.1 2.4 1.1 6.4 3.3 21.6 4 23.4.3.9 17.1 1.9 32.5 1.7 16.9-.2 33.7-1.5 34.4-2.6.4-.6 3.7-28.5 9.6-28.5h.8c5.9 0 9.1 27.9 9.6 28.5.8 1.1 17.6 2.4 34.4 2.6 15.4.2 32.2-.8 32.5-1.7.6-1.8 2.9-17 4-23.4.5-2.7 3-2.7 3.1-2.4 0-1 1-13.1 0-13.2zm-94 13.6v.5c-.2 3.4-3 13.5-4 17.3l-.2.9c-.7 2.4-1 2.4-4.1 2.9l-.8.1c-.6.1-11.5 1.2-23.3 1.3h-1c-14.3 0-24.9-1.7-26.2-2.9-2-2.2-5.8-25-4.6-27.7 1.3-2 2.5-2.6 6.9-3.2 4.4-.6 9.7-.9 15.9-.9 4.3 0 9.1.2 14.1.4 14.3.8 22.7 3.1 25.2 4.2 2.4 1.2 2.3 3.3 2.1 7.1zm79.8 20.3c-1.3 1.2-11.9 2.9-26.2 2.9h-1c-11.8-.1-22.7-1.2-23.3-1.3l-.8-.1c-3.1-.5-3.4-.5-4.1-2.9l-.2-.9c-1-3.8-3.8-13.9-4-17.3v-.5c-.2-3.8-.3-5.9 2.1-6.9 2.5-1.1 10.9-3.3 25.2-4.2 5-.3 9.8-.4 14.1-.4 6.2 0 11.5.3 15.9.9 4.4.6 5.6 1.1 6.9 3.2 1.2 2.5-2.6 25.3-4.6 27.5zM264.9 214.7c-1.7-.9-3.5-1.8-5.4-2.8-11.2-5.8-22.8-15.3-27.3-19.5-.4 1.2.1 3.2.9 5.4-8.5-4.7-17.2-9.8-25-14.8-10.9 7.1-23.7 14.2-35.3 20.4.7-2.3 1.1-4.7.4-6.7-4.5 6-17.4 12.9-27.3 21.5-2.6 2-5.1 4.4-7.3 7.5-7.3 10-11.5 26.7-4.9 54.3 7.3-13.8 1.1-34.8 20.4-37.6 20.4-3 38.2 0 54 0 15.8 0 33.6-3 54 0 19.3 2.9 13.1 23.8 20.4 37.6 9.9-41.9-4.9-58.5-17.6-65.3z"/></g><path d="M404.8 399.3c.2-20.1 1.6-40.2 3.9-60.1 3-26.1 7.1-52.1 12.5-77.8 1.6-7.5 3.3-14.9 5.3-22.3.6-2.1 6.3-16 5.3-17.4-4.4-6.1-16.6-13-24.4-11.6-11.6 13.6-21.9 37.7-30.5 64.6 6.9-40.5 12.5-76.2 12.7-89.8-4.4-5.8-16.9-13-24.7-11.1-26.1 25.5-54.6 77.3-54.6 115 0 30.2 13.9 45.2 30.8 36.6-5.8-10.8-11.9-29.4-11.9-52.9 0-25.8 12.5-61 34.6-80.1-5.3 83.7-17.5 164.9-32.4 219.8 3 4.7 11.6 7.2 17.5 5 4.4-19.1 11.6-54.9 18.8-92.9 9.1-34.4 21.9-71.5 36-90.9-4.6 30.2-8.4 60.5-11.5 90.8-1.9 18.3-2.6 36.7-3.8 55.1-1.6 25.3-3.2 50.6-4 75.9-.1 4.3-.4 8.7-.2 13 .1 2.6 0 3.8 3 3.7 5.5-.1 11.5-2 16.3-4.7 5.4-2.9 3.2-9.6 3-14.7-.6-17.7-1.7-35.4-1.7-53.2z"/><path d="M618.4 225.1c-32.4 8.3-61.8 9.7-92 7.2 2.5-10.3 4.4-18.3 5.5-24.1-5.5-6.4-17.2-11.6-24.9-10.8-1.7 8-3.3 19.4-5 32.4-12.2-1.4-33.6-3.5-56.8-8.3-2.8 3.9-2.5 9.7 0 12.5 19.2 4.9 42.1 10 54.6 11.7-3.1 25.3-6 54.7-8 80.3-3.4 15.3-8.3 30.5-15 40.8-1.1-23-.8-56.8 11.4-91.5-2.2-3.6-8.9-7.2-15.2-8.9l.6-3.9c-3.6-6.7-14.1-17.7-21.1-17.5-14.4 7.5-30.8 39.6-30.8 86.8 0 14.7 1.7 31 5.5 48.5 3 3 9.4 6.9 14.7 7.2 7.5-7.8 13.3-23 17.7-44.1 0 12.7.6 24.7 1.9 34.4 2.5 2.8 8.3 4.7 12.5 4.7 5-5.8 10.9-18.3 16.2-32.5-.5 10.1-.8 18.8-.7 25.6 2.2 3.3 10.3 7.2 15.8 6.9 4.8-5.5 10.5-16.5 15.9-29.2 1.2 8 3.3 16.2 6.3 24.5 3 2.8 9.7 5.3 16.1 5.3 23.6-12.3 48.8-56.8 48.8-85.9 0-10.5-5-12.5-8.9-11.4-.3 37.7-16.9 70.7-40.2 87-2.8-5.3-5-14.1-5.3-26.6 3 2.5 6.7 4.2 10 5 18-16.6 25.2-56.5 26.1-70.1-6.4-10.8-18-17.5-26.6-17.5-13.6 7.2-27.7 35.2-27.7 70.1 0 2.6.1 5.2.2 7.9-3.7 11.2-8.4 21.3-14.1 28.5 2.2-51 10-92.3 16.6-121.7 33.8 3 68.2 3 90.1.8 6.3-5.8 9.4-20.8 5.8-24.1zm-158 86.2c-5 32.4-13 57.1-19.1 63.7-.6-4.7-4-19.5-4-35.8-.3-35.5 8-54 20.9-65.1 1.9 6.1 0 23.3-2.8 31.3 1.4 1.1 3.3 1.7 5.3 1.4l-.3 4.5zm95.3-26.4c1.4 6.9-1.7 38.8-11.1 56.5-2.5-1.4-4.4-4.2-6.4-7.2 1.5-19.9 7-36.8 17.5-49.3z"/><g><path d="M426.4 452.2v-50.8h6.6c4.4 0 7.9.8 10.2 3 2.3 2.1 3.5 5.5 3.5 10.5 0 2.4-.2 4.2-1 5.9-.8 1.7-1.9 3-3.7 4.6 1.9 1 3.3 3 4.4 6.2.6 1.6.8 3.7.8 6.2 0 3.8-.7 7.2-2.4 9.8-1.7 2.6-4.7 4.4-9.1 4.6h-9.3zm7.5-29.9c.6 0 2.1.1 3.3-.8 1.2-.8 2.2-2.5 2.2-6s-1-5.2-2.2-6c-1.2-.8-2.7-.8-3.3-.8v13.6zm0 22.5c.6 0 2.1.1 3.3-.8 1.2-.9 2.2-2.9 2.2-7.1 0-4.1-1-6.2-2.2-7.1-1.2-.9-2.7-.8-3.3-.8v15.8zM450.1 452.2l7.7-50.8h9.1l7.7 50.8h-7.3l-1.4-10.4h-7.2l-1.4 10.4h-7.2zm12.6-34.3l-.2-1.3h-.4l-.2 1.3-2.1 16h5.1l-2.2-16zM478.9 401.3h7.5v43.9h9.9v6.9h-17.4v-50.8zM500.4 452.2v-50.8h5.9c6.9 0 10.6 1.4 12.7 5.3 1.9 3.9 2.2 10.2 2.2 20.2s-.3 16.3-2.2 20.1c-2 3.9-5.7 5.3-12.7 5.3h-5.9zm7.4-7.5c2.6 0 4-.3 4.8-2.8.3-1.2.6-3 .7-5.4.1-2.4.1-5.7.1-9.8 0-4.1 0-7.4-.1-9.8-.1-2.4-.3-4.1-.7-5.4-.8-2.4-2.2-2.7-4.8-2.7v35.9zM536.9 452.2h-5.8l-6.8-50.8h6.9l3 26.4.1 1.7h.6l.2-1.7 3.2-26.4h5.4l3.2 26.4.2 1.7h.6l.1-1.7 3-26.4h6.9l-6.8 50.8h-5.8l-3.5-24.1-.4-3h-.3l-.4 3-3.6 24.1zM562 401.3h7.5v50.8H562v-50.8zM582.7 425.7l-.6-2.4h-.4v28.8h-6.8v-50.8h6.6l7.3 26.5.6 2.4h.4v-28.8h6.8v50.8H590l-7.3-26.5z"/></g></svg>