<?xml version="1.0" encoding="utf-8"?><svg xmlns="http://www.w3.org/2000/svg" viewBox="0 0 96 96"><switch><g><path d="M25.172 30.829a4 4 0 0 1 0-5.657l20-20a4 4 0 0 1 5.656 0l20 20a4 4 0 0 1-5.656 5.657L52 17.657V64a4 4 0 0 1-8 0V17.657L30.828 30.829a4.001 4.001 0 0 1-5.656 0zM88 60a4 4 0 0 0-4 4v16c0 2.205-1.747 4-3.895 4H16c-2.206 0-4-1.795-4-4V64a4 4 0 0 0-8 0v16c0 1.619.317 3.189.944 4.672a11.927 11.927 0 0 0 2.57 3.812 11.915 11.915 0 0 0 3.813 2.57C12.81 91.682 14.382 92 16 92h64.105c1.61 0 3.175-.32 4.648-.951a11.994 11.994 0 0 0 6.317-6.394c.618-1.477.93-3.044.93-4.655V64a4 4 0 0 0-4-4z"/></g></switch></svg>