<?xml version="1.0" encoding="utf-8"?><svg xmlns="http://www.w3.org/2000/svg" viewBox="0 0 96 96"><switch><g><path d="M80 40h-8V20c0-6.63-5.37-12-12-12H36c-6.63 0-12 5.37-12 12v20h-8C9.37 40 4 45.37 4 52v16c0 6.63 5.37 12 12 12h8.697c1.648 4.657 6.08 8 11.303 8h24c5.223 0 9.652-3.343 11.303-8H80c6.63 0 12-5.37 12-12V52c0-6.63-5.37-12-12-12zM32 20c0-2.21 1.79-4 4-4h24c2.21 0 4 1.79 4 4v20H32V20zm28 60H36a4 4 0 0 1 0-8h24a4 4 0 0 1 0 8zm24-12c0 2.21-1.79 4-4 4h-8.697c-1.647-4.657-6.08-8-11.303-8H36c-5.223 0-9.652 3.343-11.303 8H16c-2.21 0-4-1.79-4-4V52c0-2.21 1.79-4 4-4h64c2.21 0 4 1.79 4 4v16z"/></g></switch></svg>