<?xml version="1.0" encoding="utf-8"?><svg xmlns="http://www.w3.org/2000/svg" viewBox="0 0 96 96"><switch><g><path d="M72 56c-4.812 0-9.12 2.137-12.055 5.501L39.643 51.35c.23-1.08.357-2.202.357-3.35s-.127-2.27-.357-3.35l20.303-10.151C62.879 37.864 67.188 40 72 40c8.836 0 16-7.164 16-16S80.836 8 72 8s-16 7.164-16 16c0 1.148.127 2.27.357 3.35L36.055 37.501C33.121 34.136 28.814 32 24 32c-8.836 0-16 7.164-16 16s7.164 16 16 16c4.814 0 9.12-2.137 12.055-5.501L56.357 68.65A16.08 16.08 0 0 0 56 72c0 8.836 7.164 16 16 16s16-7.164 16-16-7.164-16-16-16zm0-40a8 8 0 1 1 0 16 8 8 0 0 1 0-16zM24 56a8 8 0 1 1 0-16 8 8 0 0 1 0 16zm48 24a8 8 0 1 1 0-16 8 8 0 0 1 0 16z"/></g></switch></svg>