<?xml version="1.0" encoding="utf-8"?><svg xmlns="http://www.w3.org/2000/svg" viewBox="0 0 96 96"><switch><g><path d="M53.15 33.143A23.898 23.898 0 0 0 48 48c0 5.625-1.451 10.91-4 15.504a32.091 32.091 0 0 1-5.146 6.895C33.047 76.323 24.952 80 16 80H8a4 4 0 0 1 0-8h8c7.645 0 14.455-3.574 18.85-9.143A23.898 23.898 0 0 0 40 48c0-5.625 1.451-10.91 4-15.504a32.091 32.091 0 0 1 5.146-6.895C54.953 19.677 63.048 16 72 16h6.343l-9.171-9.172a4 4 0 1 1 5.656-5.656l16 16a4 4 0 0 1 0 5.656l-16 16C74.047 39.609 73.023 40 72 40s-2.047-.391-2.828-1.172a4 4 0 0 1 0-5.656L78.343 24H72c-7.645 0-14.455 3.574-18.85 9.143zM8 24h8c7.645 0 14.455 3.574 18.85 9.143a39.912 39.912 0 0 1 4.005-7.541C33.047 19.677 24.952 16 16 16H8a4 4 0 0 0 0 8zm66.828 33.172a4 4 0 1 0-5.656 5.656L78.343 72H72c-7.645 0-14.455-3.574-18.85-9.143a39.912 39.912 0 0 1-4.005 7.541C54.953 76.323 63.048 80 72 80h6.343l-9.171 9.172a4 4 0 1 0 5.656 5.656l16-16a4 4 0 0 0 0-5.656l-16-16z"/></g></switch></svg>