<?xml version="1.0" encoding="utf-8"?><svg xmlns="http://www.w3.org/2000/svg" viewBox="0 0 432 484"><path d="M212.721 48.192C105.356 48.2 18.33 135.231 18.33 242.6c0 107.352 87.026 194.391 194.391 194.391 107.369 0 194.4-87.039 194.409-194.391-.009-107.369-87.04-194.4-194.409-194.408zm119.124 100.794c18.96 24.084 30.84 53.909 32.34 86.478-21.954-4.657-42.686-6.925-62.014-6.925v-.004h-.143a250.85 250.85 0 0 0-43.934 3.853 682.144 682.144 0 0 0-10.152-23.617c30.65-13.449 60.074-32.595 83.903-59.785zM212.721 90.93c35.783 0 68.597 12.506 94.578 33.329-19.881 23.803-46.129 41.044-74.477 53.218-19.92-38.521-39.174-66.079-52.328-82.927 10.415-2.311 21.168-3.62 32.227-3.62zm-66.986 15.811c10.524 12.433 31.605 39.783 54.117 82.486-45.783 13.63-91.886 16.831-119.781 16.822-.795 0-1.585 0-2.354-.009h-.035c-4.692 0-8.731-.073-12.109-.177 10.891-43.545 40.729-79.604 80.162-99.122zM61.059 242.6c0-.713.026-1.439.069-2.186 4.329.16 9.88.298 16.563.298h.043c30.486-.199 83.717-2.748 137.657-19.777a597.58 597.58 0 0 1 8.731 20.075c-36.02 12.048-64.394 31.242-85.38 50.358-20.2 18.403-33.852 36.625-41.826 48.794-22.314-26.42-35.848-60.375-35.857-97.562zm151.662 151.671c-33.748 0-64.86-11.163-90.094-29.894 5.365-8.834 16.865-25.79 35.178-43.317 18.84-18.058 44.855-36.642 78.814-47.706 11.543 32.357 21.989 69.349 29.946 110.985-16.761 6.386-34.875 9.932-53.844 9.932zm85.843-26.926c-7.694-37.657-17.371-71.613-27.994-101.917a218.513 218.513 0 0 1 31.108-2.212H302.119c18.092 0 37.969 2.251 59.525 7.15-7.46 40.102-30.689 74.636-63.08 96.979z"/></svg>