<?xml version="1.0" encoding="utf-8"?><svg xmlns="http://www.w3.org/2000/svg" viewBox="0 0 96 96"><switch><g><path d="M12 32C5.37 32 0 37.537 0 44.167V52c0 6.63 5.37 12 12 12h8l20 20V12L20 32h-8zm19.999-.843L32 31v33.688L23.312 56H12c-2.206 0-4-1.794-4-4v-7.833C8 41.908 9.832 40 12 40h11.312l8.687-8.843zm38.355 41.347a3.999 3.999 0 0 1-3.43-6.052 35.785 35.785 0 0 0 5.075-18.442 35.785 35.785 0 0 0-5.075-18.442 3.998 3.998 0 0 1 1.381-5.485 3.998 3.998 0 0 1 5.485 1.381A43.816 43.816 0 0 1 80 48.009a43.816 43.816 0 0 1-6.209 22.547 3.998 3.998 0 0 1-3.437 1.948zm11.971 10.974a4 4 0 0 1-3.303-6.251C84.896 68.596 88 58.493 88 48.009s-3.104-20.587-8.978-29.218a4 4 0 1 1 6.614-4.501C92.416 24.253 96 35.913 96 48.009s-3.584 23.756-10.364 33.719a4 4 0 0 1-3.311 1.75zM58.134 61.301a4 4 0 0 1-3.686-5.55A19.884 19.884 0 0 0 56 48.009c0-2.702-.528-5.32-1.57-7.783a4 4 0 0 1 7.368-3.117A27.826 27.826 0 0 1 64 48.009c0 3.756-.732 7.403-2.177 10.841a4.001 4.001 0 0 1-3.689 2.451z"/></g></switch></svg>