<?xml version="1.0" encoding="utf-8"?><svg xmlns="http://www.w3.org/2000/svg" viewBox="0 0 96 96"><switch><g><path d="M72 12h-4.697C65.652 7.342 61.223 4 56 4H40c-5.223 0-9.652 3.342-11.303 8H24c-6.63 0-12 5.37-12 12v56c0 6.63 5.37 12 12 12h48c6.63 0 12-5.37 12-12V24c0-6.63-5.37-12-12-12zm-32 0h16a4 4 0 0 1 0 8H40a4 4 0 0 1 0-8zm36 68c0 2.21-1.79 4-4 4H24c-2.21 0-4-1.79-4-4V24c0-2.21 1.79-4 4-4h4.697c1.648 4.658 6.08 8 11.303 8h16c5.223 0 9.652-3.342 11.303-8H72c2.21 0 4 1.79 4 4v56z"/></g></switch></svg>