<?xml version="1.0" encoding="utf-8"?><svg xmlns="http://www.w3.org/2000/svg" viewBox="0 0 96 96"><switch><g><path d="M96 44c0 18.529-14.001 33.79-32 35.78v-8.064C77.569 69.775 88 58.105 88 44c0-15.464-12.536-28-28-28-14.104 0-25.76 10.434-27.702 24H24c-8.836 0-16 7.163-16 16 0 6.628 4.029 12.313 9.772 14.743A15.965 15.965 0 0 0 24 72h16v8H24.078l-.077.002C10.746 80.002 0 69.256 0 56.001 0 42.745 10.746 32 24 32h2.058C31.002 18.02 44.327 8 60 8c19.882 0 36 16.118 36 36zM66.828 58.83a4 4 0 0 0 0-5.656l-12-12a4.001 4.001 0 0 0-5.656 0l-12 12a4 4 0 1 0 5.656 5.656L48 53.659v26.343a4 4 0 0 0 8 0V53.659l5.172 5.171a3.997 3.997 0 0 0 5.656 0z"/></g></switch></svg>