<?xml version="1.0" encoding="utf-8"?><svg xmlns="http://www.w3.org/2000/svg" viewBox="0 0 96 96"><switch><g><path d="M72 56h-8V40h8c8.836 0 16-7.164 16-16S80.836 8 72 8c-8.837 0-16 7.164-16 16v8H40v-8c0-8.836-7.164-16-16-16S8 15.164 8 24s7.164 16 16 16h8v16h-8c-8.836 0-16 7.164-16 16s7.164 16 16 16c8.837 0 16-7.164 16-16v-8h16v7.98l-.001.02c0 8.836 7.164 16 16 16s16-7.164 16-16S80.836 56.002 72 56zm0-40a8 8 0 0 1 0 16h-8v-8a8 8 0 0 1 8-8zm-56 8a8 8 0 0 1 16 0v8h-8c-4.418 0-8-3.583-8-8zm8 56a8 8 0 0 1 0-16h8v8a8 8 0 0 1-8 8zm16-24V40h16v16H40zm32 24a8 8 0 0 1-8-8v-8h7.999A8 8 0 0 1 72 80z"/></g></switch></svg>