<?xml version="1.0" encoding="utf-8"?><svg xmlns="http://www.w3.org/2000/svg" viewBox="0 0 96 96"><switch><g><path d="M32 4H16C9.37 4 4 9.37 4 16v16c0 6.63 5.37 12 12 12h16c6.63 0 12-5.37 12-12V16c0-6.63-5.37-12-12-12zm4 28c0 2.21-1.79 4-4 4H16c-2.21 0-4-1.79-4-4V16c0-2.21 1.79-4 4-4h16c2.21 0 4 1.79 4 4v16zM80 4H64c-6.63 0-12 5.37-12 12v64c0 6.63 5.37 12 12 12h16c6.63 0 12-5.37 12-12V16c0-6.63-5.37-12-12-12zm4 76c0 2.21-1.79 4-4 4H64c-2.21 0-4-1.79-4-4V16c0-2.21 1.79-4 4-4h16c2.21 0 4 1.79 4 4v64zM32 52H16C9.37 52 4 57.37 4 64v16c0 6.63 5.37 12 12 12h16c6.63 0 12-5.37 12-12V64c0-6.63-5.37-12-12-12zm4 28c0 2.21-1.79 4-4 4H16c-2.21 0-4-1.79-4-4V64c0-2.21 1.79-4 4-4h16c2.21 0 4 1.79 4 4v16z"/></g></switch></svg>