<?xml version="1.0" encoding="utf-8"?><svg xmlns="http://www.w3.org/2000/svg" viewBox="0 0 96 96"><switch><g><path d="M64 12c-12 0-24-8-36-8S8 8 8 8v80a4 4 0 0 0 8 0V61.355A53.596 53.596 0 0 1 28 60c12 0 24 8 36 8s20-4 20-4V8s-8 4-20 4zm12 46.393C72.102 59.475 68.044 60 64 60c-5.848 0-11.556-2.297-17.025-4.106C40.832 53.861 34.527 52 28 52a61.74 61.74 0 0 0-12 1.175V13.607C19.898 12.525 23.955 12 28 12c5.848 0 11.556 2.297 17.025 4.106C51.168 18.139 57.473 20 64 20a61.74 61.74 0 0 0 12-1.175v39.568z"/></g></switch></svg>