<?xml version="1.0" encoding="utf-8"?><svg xmlns="http://www.w3.org/2000/svg" viewBox="0 0 96 96"><switch><g><path d="M28 8c0 2.21-1.79 4-4 4h-8c-2.21 0-4 1.79-4 4v8c0 2.21-1.79 4-4 4s-4-1.79-4-4v-8C4 9.37 9.37 4 16 4h8c2.21 0 4 1.79 4 4zM12 40v16c0 2.21-1.79 4-4 4s-4-1.79-4-4V40c0-2.21 1.79-4 4-4s4 1.79 4 4zm16 48c0 2.21-1.79 4-4 4h-8C9.37 92 4 86.63 4 80v-8c0-2.21 1.79-4 4-4s4 1.79 4 4v8c0 2.21 1.79 4 4 4h8c2.21 0 4 1.79 4 4zm32 0c0 2.21-1.79 4-4 4H40c-2.21 0-4-1.79-4-4s1.79-4 4-4h16c2.21 0 4 1.79 4 4zm32-16v8c0 6.63-5.37 12-12 12h-8c-2.21 0-4-1.79-4-4s1.79-4 4-4h8c2.21 0 4-1.79 4-4v-8c0-2.21 1.79-4 4-4s4 1.79 4 4zm0-32v16c0 2.21-1.79 4-4 4s-4-1.79-4-4V40c0-2.21 1.79-4 4-4s4 1.79 4 4zm0-24v8c0 2.21-1.79 4-4 4s-4-1.79-4-4v-8c0-2.21-1.79-4-4-4h-8c-2.21 0-4-1.79-4-4s1.79-4 4-4h8c6.63 0 12 5.37 12 12zM60 8c0 2.21-1.79 4-4 4H40c-2.21 0-4-1.79-4-4s1.79-4 4-4h16c2.21 0 4 1.79 4 4zm4 36H32a4 4 0 0 0 0 8h32a4 4 0 0 0 0-8z"/></g></switch></svg>