<?xml version="1.0" encoding="utf-8"?><svg xmlns="http://www.w3.org/2000/svg" viewBox="0 0 96 96"><switch><g><path d="M17.66 12H36c2.21 0 4-1.79 4-4s-1.79-4-4-4H8C5.79 4 4 5.79 4 8v28c0 2.21 1.79 4 4 4s4-1.79 4-4V17.66L37.141 42.8c1.569 1.56 4.1 1.56 5.659 0s1.56-4.1 0-5.659L17.66 12zM88 55.969c-2.21 0-4 1.79-4 4v18.34l-25.154-25.14c-1.57-1.56-4.115-1.56-5.676 0s-1.561 4.115 0 5.675L78.311 84h-18.34c-2.211 0-4 1.79-4 4s1.789 4 4 4h28C90.18 92 92 90.18 92 87.969v-28c0-2.21-1.79-4-4-4z"/></g></switch></svg>