<?xml version="1.0" encoding="utf-8"?><svg xmlns="http://www.w3.org/2000/svg" viewBox="0 0 96 96"><switch><g><path d="M48 92a39.77 39.77 0 0 1-15.571-3.145 40.025 40.025 0 0 1-12.713-8.571 40.194 40.194 0 0 1-4.882-5.917 39.88 39.88 0 0 1-3.688-6.796C9.059 62.637 8 57.398 8 52s1.059-10.637 3.146-15.571a39.95 39.95 0 0 1 3.688-6.796 40.194 40.194 0 0 1 4.882-5.917 4 4 0 0 1 5.657 5.657A31.895 31.895 0 0 0 16 52c0 4.321.846 8.512 2.513 12.455a31.906 31.906 0 0 0 6.86 10.172A31.895 31.895 0 0 0 48 84c4.321 0 8.512-.846 12.455-2.513a31.906 31.906 0 0 0 10.172-6.86A31.895 31.895 0 0 0 80 52c0-4.322-.846-8.512-2.513-12.455a31.92 31.92 0 0 0-6.86-10.173 4 4 0 1 1 5.657-5.656 40.194 40.194 0 0 1 4.882 5.917 39.95 39.95 0 0 1 3.688 6.796C86.941 41.363 88 46.602 88 52s-1.059 10.637-3.146 15.571a40.02 40.02 0 0 1-8.57 12.713 40.194 40.194 0 0 1-5.917 4.882 39.955 39.955 0 0 1-6.796 3.689A39.77 39.77 0 0 1 48 92zm4-44V8a4 4 0 0 0-8 0v40a4 4 0 0 0 8 0z"/></g></switch></svg>