<?xml version="1.0" encoding="utf-8"?><svg xmlns="http://www.w3.org/2000/svg" viewBox="0 0 96 96"><switch><g><path d="M92 16v24a4 4 0 0 1-4 4H64a4 4 0 0 1 0-8h13.489c-5.425-5.288-9.7-9.467-10.861-10.627A31.894 31.894 0 0 0 44 16a31.894 31.894 0 0 0-22.628 9.373A31.894 31.894 0 0 0 12 48a31.894 31.894 0 0 0 9.372 22.627A31.894 31.894 0 0 0 44 80a31.894 31.894 0 0 0 22.628-9.373 32.301 32.301 0 0 0 4.51-5.654 31.833 31.833 0 0 0 3.04-6.303 4 4 0 1 1 7.545 2.661 39.824 39.824 0 0 1-9.439 14.954 39.754 39.754 0 0 1-13.234 8.786 39.941 39.941 0 0 1-7.413 2.197 40.25 40.25 0 0 1-15.274 0 39.941 39.941 0 0 1-7.413-2.197c-4.965-2.013-9.417-4.969-13.234-8.786S8.942 68.015 6.93 63.05A40.02 40.02 0 0 1 4 48a40.02 40.02 0 0 1 2.929-15.05c2.013-4.965 4.969-9.417 8.786-13.234s8.27-6.773 13.234-8.786a39.941 39.941 0 0 1 7.413-2.197 40.188 40.188 0 0 1 15.275-.001 39.941 39.941 0 0 1 7.413 2.197 39.743 39.743 0 0 1 13.234 8.786c1.195 1.195 5.873 5.764 11.716 11.46V16a4 4 0 0 1 8 0z"/></g></switch></svg>