<?xml version="1.0" encoding="utf-8"?><svg xmlns="http://www.w3.org/2000/svg" viewBox="0 0 96 96"><switch><g><path d="M48 4C26.809 4 4 9.007 4 20v56c0 10.993 22.809 16 44 16s44-5.007 44-16V20C92 9.007 69.191 4 48 4zm0 8c23.189 0 35.18 5.736 35.986 8-.806 2.264-12.797 8-35.986 8s-35.18-5.736-35.987-8c.807-2.264 12.798-8 35.987-8zM12 29.723C20.513 33.989 34.577 36 48 36c13.424 0 27.488-2.013 36.001-6.279l.002 18.229c-.634 2.223-12.629 8.051-36.003 8.051-23.4 0-35.396-5.841-36-8V29.723zM48 84c-23.4 0-35.396-5.841-36-8V57.723C20.513 61.989 34.577 64 48 64c13.426 0 27.492-2.013 36.004-6.281l.002 18.223C83.396 78.159 71.4 84 48 84z"/></g></switch></svg>