<?xml version="1.0" encoding="utf-8"?><svg xmlns="http://www.w3.org/2000/svg" viewBox="0 0 96 96"><switch><g><path d="M80 4H16C9.37 4 4 9.37 4 16v64c0 6.63 5.37 12 12 12h64c6.63 0 12-5.37 12-12V16c0-6.63-5.37-12-12-12zm4 76c0 2.21-1.79 4-4 4H16c-2.21 0-4-1.79-4-4V16c0-2.21 1.79-4 4-4h64c2.21 0 4 1.79 4 4v64zM62.143 33.857a4.002 4.002 0 0 0-5.658 0L48 42.343l-8.484-8.485a4.002 4.002 0 0 0-5.658 5.658L42.343 48l-8.485 8.484a4.002 4.002 0 0 0 5.658 5.658L48 53.657l8.484 8.485a4.002 4.002 0 0 0 5.658-5.658L53.657 48l8.485-8.484a4.004 4.004 0 0 0 .001-5.659z"/></g></switch></svg>