<?xml version="1.0" encoding="utf-8"?><svg xmlns="http://www.w3.org/2000/svg" viewBox="0 0 96 96"><switch><g><path d="M45.942 12l36.886 36.888A3.978 3.978 0 0 1 84 51.716a3.98 3.98 0 0 1-1.172 2.828L54.544 82.828A3.982 3.982 0 0 1 51.716 84c-.619 0-1.81-.152-2.829-1.172L12 45.941V12h33.942m3.313-8H4v45.255l39.23 39.23A11.967 11.967 0 0 0 51.716 92c3.07 0 6.142-1.172 8.485-3.515l28.284-28.284c4.686-4.687 4.686-12.284 0-16.971L49.255 4zM34 24c-5.523 0-10 4.478-10 10s4.477 10 10 10c5.522 0 10-4.478 10-10s-4.477-10-10-10zm0 12a2 2 0 1 1 .001-4.001A2 2 0 0 1 34 36z"/></g></switch></svg>