<?xml version="1.0" encoding="utf-8"?>
<!-- Generator: Adobe Illustrator 20.0.0, SVG Export Plug-In . SVG Version: 6.00 Build 0)  -->
<svg version="1.1" id="Layer_1" xmlns="http://www.w3.org/2000/svg" xmlns:xlink="http://www.w3.org/1999/xlink" x="0px" y="0px"
	 viewBox="0 0 168 242.9" style="enable-background:new 0 0 168 242.9;" xml:space="preserve">
<g id="Layer_1_1_">
	<path d="M33083.2-3201.4c-2022.3,0-3056.4,1212.3-3056.4,4357.8c0,1622.7,213.3,2130.3,685.8,2913.3
		c693.9,1185.3,1836,1425.6,2351.7,1425.6c515.7,0,1657.8-248.4,2351.7-1425.6c464.4-801.9,685.8-1301.4,685.8-2913.3
		C36147.7-1997.2,35105.5-3201.4,33083.2-3201.4z"/>
</g>
<path d="M152,158.6c-0.6,0-1.2,0.1-1.8,0.1c-2.3,5.9-4,10.9-4,13c0,5.7-12.7,10.9-14.6,13s-13.1,8.8-13.6,6.8
	c-0.5-2.1,0-8.3-3.4-9.4c-3.3-1-18.6-4-30.7-4.2c-12,0.1-27.3,3.1-30.7,4.2c-3.4,1-2.9,7.3-3.4,9.4s-11.7-4.7-13.6-6.8
	s-14.6-7.3-14.6-13c0-2.1-1.8-7.1-4-13c-0.6,0-1.2-0.1-1.7-0.1c-2.1-0.1-3.8-0.2-5.2-0.4c2.3,20.1,7.3,32.5,15.4,47.1
	c17.1,30.9,45.3,37.6,57.9,37.6s40.9-6.8,57.9-37.6c8-14.6,13-26.9,15.4-47.1C155.8,158.3,154.1,158.4,152,158.6z M106.9,212.8
	c-10.1,2.6-5.5-4.8-22.9-5c-17.4,0.2-12.9,7.6-22.9,5c-5.1-1.3-4.4-9.5-4.4-12c0-4.7,11.7-8.5,26.4-8.8l0,0c0.3,0,0.6,0,0.9,0
	s0.6,0,0.9,0l0,0c14.8,0.3,26.4,4.1,26.4,8.8C111.3,203.2,111.9,211.5,106.9,212.8z M-0.1,128.1L-0.1,128.1
	C-0.1,128.2-0.1,128.2-0.1,128.1z M168,128.2C168,128.1,168,128.1,168,128.2C167.9,128.2,168,128.2,168,128.2z M168,114.9
	c-1.1-0.1-20.2-1.8-38.7-1.8s-35.9,4.1-39.2,4.8c-1.6,0.3-4,0.5-6.1,0.6c-2.1-0.1-4.5-0.2-6.1-0.6c-3.3-0.7-20.7-4.8-39.2-4.8
	S1.1,114.7,0,114.9c-1,0.1,0,12.2,0,13.2c0.1-0.2,2.6-0.3,3.1,2.4c1.1,6.4,3.3,21.6,4,23.4c0.3,0.9,17.1,1.9,32.5,1.7
	c16.9-0.2,33.7-1.5,34.4-2.6c0.4-0.6,3.7-28.5,9.6-28.5c0.1,0,0.2,0,0.4,0c0.1,0,0.2,0,0.4,0c5.9,0,9.1,27.9,9.6,28.5
	c0.8,1.1,17.6,2.4,34.4,2.6c15.4,0.2,32.2-0.8,32.5-1.7c0.6-1.8,2.9-17,4-23.4c0.5-2.7,3-2.7,3.1-2.4C168,127.1,169,115,168,114.9z
	 M74,128.5v0.5c-0.2,3.4-3,13.5-4,17.3l-0.2,0.9c-0.7,2.4-1,2.4-4.1,2.9l-0.8,0.1c-0.6,0.1-11.5,1.2-23.3,1.3h-1
	c-14.3,0-24.9-1.7-26.2-2.9c-2-2.2-5.8-25-4.6-27.7c1.3-2,2.5-2.6,6.9-3.2s9.7-0.9,15.9-0.9c4.3,0,9.1,0.2,14.1,0.4
	c14.3,0.8,22.7,3.1,25.2,4.2C74.3,122.6,74.2,124.7,74,128.5z M153.8,148.8c-1.3,1.2-11.9,2.9-26.2,2.9h-1
	c-11.8-0.1-22.7-1.2-23.3-1.3l-0.8-0.1c-3.1-0.5-3.4-0.5-4.1-2.9l-0.2-0.9c-1-3.8-3.8-13.9-4-17.3v-0.5c-0.2-3.8-0.3-5.9,2.1-6.9
	c2.5-1.1,10.9-3.3,25.2-4.2c5-0.3,9.8-0.4,14.1-0.4c6.2,0,11.5,0.3,15.9,0.9s5.6,1.1,6.9,3.2C159.6,123.8,155.8,146.6,153.8,148.8z
	 M140.8,31.7c-1.7-0.9-3.5-1.8-5.4-2.8l0,0c-11.2-5.8-22.8-15.3-27.3-19.5c-0.4,1.2,0.1,3.2,0.9,5.4C100.5,10.1,91.8,5,84,0
	C73.1,7.1,60.3,14.2,48.7,20.4c0.7-2.3,1.1-4.7,0.4-6.7c-4.5,6-17.4,12.9-27.3,21.5c-2.6,2-5.1,4.4-7.3,7.5l0,0l0,0
	C7.2,52.7,3,69.4,9.6,97c7.3-13.8,1.1-34.8,20.4-37.6c20.4-3,38.2,0,54,0s33.6-3,54,0c19.3,2.9,13.1,23.8,20.4,37.6
	C168.3,55.1,153.5,38.5,140.8,31.7z"/>
</svg>
