<?xml version="1.0" encoding="utf-8"?>
<svg viewBox="0 0 182.7 150.7">
<path d="M182.2,18.8c-6.7,3-13.9,5-21.5,5.9c7.7-4.6,13.6-12,16.4-20.7C170,8.2,162,11.4,153.5,13
	c-6.8-7.3-16.5-11.8-27.3-11.8c-20.7,0-37.4,16.7-37.4,37.4c0,2.9,0.3,5.8,1,8.5C58.7,45.6,31.1,30.7,12.7,8.1
	C9.5,13.6,7.6,20,7.6,26.9c0,13,6.6,24.4,16.6,31.1c-6.1-0.2-11.9-1.9-16.9-4.7c0,0.2,0,0.3,0,0.5c0,18.1,12.9,33.2,30,36.7
	c-3.1,0.9-6.4,1.3-9.8,1.3c-2.4,0-4.8-0.2-7-0.7c4.8,14.9,18.6,25.7,34.9,26c-12.8,10-28.9,16-46.4,16c-3,0-6-0.2-8.9-0.5
	c16.6,10.6,36.2,16.8,57.3,16.8c68.8,0,106.4-57,106.4-106.4c0-1.6,0-3.2-0.1-4.8C170.9,32.8,177.2,26.3,182.2,18.8"/>
</svg>
